<svg id="view_1_" data-name="view (1)" xmlns="http://www.w3.org/2000/svg" width="12.47" height="8" viewBox="0 0 12.47 8">
  <metadata><?xpacket begin="﻿" id="W5M0MpCehiHzreSzNTczkc9d"?>
<x:xmpmeta xmlns:x="adobe:ns:meta/" x:xmptk="Adobe XMP Core 5.6-c138 79.159824, 2016/09/14-01:09:01        ">
   <rdf:RDF xmlns:rdf="http://www.w3.org/1999/02/22-rdf-syntax-ns#">
      <rdf:Description rdf:about=""/>
   </rdf:RDF>
</x:xmpmeta>
                                                                                                    
                                                                                                    
                                                                                                    
                                                                                                    
                                                                                                    
                                                                                                    
                                                                                                    
                                                                                                    
                                                                                                    
                                                                                                    
                                                                                                    
                                                                                                    
                                                                                                    
                                                                                                    
                                                                                                    
                                                                                                    
                                                                                                    
                                                                                                    
                                                                                                    
                                                                                                    
                           
<?xpacket end="w"?></metadata>
<defs>
    <style>
      .cls-1 {
        fill: #fff;
        fill-rule: evenodd;
      }
    </style>
  </defs>
  <path id="Shape" class="cls-1" d="M1484.39,300.244c-0.12.153-2.77,3.756-6.16,3.756s-6.04-3.6-6.15-3.756a0.4,0.4,0,0,1,0-.489c0.11-.153,2.76-3.755,6.15-3.755s6.04,3.6,6.16,3.756A0.434,0.434,0,0,1,1484.39,300.244Zm-0.86-.244c-0.64-.782-2.8-3.173-5.3-3.173s-4.66,2.39-5.3,3.173c0.64,0.781,2.81,3.172,5.3,3.172S1482.89,300.782,1483.53,300Z" transform="translate(-1472 -296)"/>
  <path id="Shape-2" data-name="Shape" class="cls-1" d="M1480.65,299.953a2.465,2.465,0,1,1-2.46-2.465A2.463,2.463,0,0,1,1480.65,299.953Zm-0.82,0a1.645,1.645,0,1,0-1.64,1.643A1.646,1.646,0,0,0,1479.83,299.953Z" transform="translate(-1472 -296)"/>
</svg>
