<svg id="Gazon_favicon" xmlns="http://www.w3.org/2000/svg" width="33.781" height="22" viewBox="0 0 33.781 22">
  <metadata><?xpacket begin="﻿" id="W5M0MpCehiHzreSzNTczkc9d"?>
<x:xmpmeta xmlns:x="adobe:ns:meta/" x:xmptk="Adobe XMP Core 5.6-c138 79.159824, 2016/09/14-01:09:01        ">
   <rdf:RDF xmlns:rdf="http://www.w3.org/1999/02/22-rdf-syntax-ns#">
      <rdf:Description rdf:about=""/>
   </rdf:RDF>
</x:xmpmeta>
                                                                                                    
                                                                                                    
                                                                                                    
                                                                                                    
                                                                                                    
                                                                                                    
                                                                                                    
                                                                                                    
                                                                                                    
                                                                                                    
                                                                                                    
                                                                                                    
                                                                                                    
                                                                                                    
                                                                                                    
                                                                                                    
                                                                                                    
                                                                                                    
                                                                                                    
                                                                                                    
                           
<?xpacket end="w"?></metadata>
<defs>
    <style>
      .cls-1 {
        fill: #25d366;
        fill-rule: evenodd;
      }
    </style>
  </defs>
  <path id="Shape" class="cls-1" d="M45.087,23.577L41.709,20,40,21.789l5.087,5.283h0.04l5.087-5.283L48.505,20Z" transform="translate(-40 -20)"/>
  <path id="Shape-2" data-name="Shape" class="cls-1" d="M56.893,23.577L53.462,20l-1.676,1.789,5.107,5.283h0.04L62,21.789,60.324,20Z" transform="translate(-40 -20)"/>
  <path id="Shape-3" data-name="Shape" class="cls-1" d="M45.087,30.628l-3.378-3.556L40,28.85l5.087,5.293V34.1l0.04,0.041,5.087-5.293-1.709-1.778Z" transform="translate(-40 -20)"/>
  <path id="Shape-4" data-name="Shape" class="cls-1" d="M56.893,30.628l-3.431-3.556L51.786,28.85l5.107,5.293V34.1l0.04,0.041L62,28.85l-1.676-1.778Z" transform="translate(-40 -20)"/>
  <path id="Shape-5" data-name="Shape" class="cls-1" d="M45.087,38.506l-3.378-3.577L40,36.717,45.087,42h0.04l5.087-5.283-1.709-1.789Z" transform="translate(-40 -20)"/>
  <path id="Shape-6" data-name="Shape" class="cls-1" d="M56.893,38.506l-3.431-3.577-1.676,1.789L56.893,42h0.04L62,36.717l-1.676-1.789Z" transform="translate(-40 -20)"/>
  <path id="Shape-7" data-name="Shape" class="cls-1" d="M68.679,23.577L65.247,20l-1.676,1.789,5.067,5.283h0.04l5.107-5.283L72.07,20Z" transform="translate(-40 -20)"/>
  <path id="Shape-8" data-name="Shape" class="cls-1" d="M68.679,30.628l-3.431-3.556L63.571,28.85l5.067,5.293,0.04-.041v0.041l5.107-5.293L72.07,27.071Z" transform="translate(-40 -20)"/>
  <path id="Shape-9" data-name="Shape" class="cls-1" d="M68.679,38.506l-3.431-3.577-1.676,1.789L68.639,42h0.04l5.107-5.283L72.07,34.929Z" transform="translate(-40 -20)"/>
</svg>
