<svg xmlns="http://www.w3.org/2000/svg" width="6.47" height="5.62" viewBox="0 0 6.47 5.62">
  <metadata><?xpacket begin="﻿" id="W5M0MpCehiHzreSzNTczkc9d"?>
<x:xmpmeta xmlns:x="adobe:ns:meta/" x:xmptk="Adobe XMP Core 5.6-c138 79.159824, 2016/09/14-01:09:01        ">
   <rdf:RDF xmlns:rdf="http://www.w3.org/1999/02/22-rdf-syntax-ns#">
      <rdf:Description rdf:about=""/>
   </rdf:RDF>
</x:xmpmeta>
                                                                                                    
                                                                                                    
                                                                                                    
                                                                                                    
                                                                                                    
                                                                                                    
                                                                                                    
                                                                                                    
                                                                                                    
                                                                                                    
                                                                                                    
                                                                                                    
                                                                                                    
                                                                                                    
                                                                                                    
                                                                                                    
                                                                                                    
                                                                                                    
                                                                                                    
                                                                                                    
                           
<?xpacket end="w"?></metadata>
<defs>
    <style>
      .cls-1 {
        fill: #fff;
        fill-rule: evenodd;
      }
    </style>
  </defs>
  <path id="Shape" class="cls-1" d="M1571.87,2611.88a0.175,0.175,0,0,1,0-.33l6.14-2.37a0.174,0.174,0,0,1,.23.2l-1.1,5.31a0.169,0.169,0,0,1-.27.1l-1.51-1.09a0.24,0.24,0,0,0-.3.01l-0.84.68a0.181,0.181,0,0,1-.28-0.08l-0.58-1.87-1.49-.56h0Zm1.98,0.26a0.3,0.3,0,0,0-.13.34l0.32,1.11a0.071,0.071,0,0,0,.14-0.01l0.09-.61a0.481,0.481,0,0,1,.15-0.3l2.42-2.25a0.054,0.054,0,0,0-.07-0.08l-2.92,1.8h0Z" transform="translate(-1571.78 -2609.19)"/>
</svg>
