<svg xmlns="http://www.w3.org/2000/svg" width="6.5" height="5.25" viewBox="0 0 6.5 5.25">
  <metadata><?xpacket begin="﻿" id="W5M0MpCehiHzreSzNTczkc9d"?>
<x:xmpmeta xmlns:x="adobe:ns:meta/" x:xmptk="Adobe XMP Core 5.6-c138 79.159824, 2016/09/14-01:09:01        ">
   <rdf:RDF xmlns:rdf="http://www.w3.org/1999/02/22-rdf-syntax-ns#">
      <rdf:Description rdf:about=""/>
   </rdf:RDF>
</x:xmpmeta>
                                                                                                    
                                                                                                    
                                                                                                    
                                                                                                    
                                                                                                    
                                                                                                    
                                                                                                    
                                                                                                    
                                                                                                    
                                                                                                    
                                                                                                    
                                                                                                    
                                                                                                    
                                                                                                    
                                                                                                    
                                                                                                    
                                                                                                    
                                                                                                    
                                                                                                    
                                                                                                    
                           
<?xpacket end="w"?></metadata>
<defs>
    <style>
      .cls-1 {
        fill: rgb(155, 155, 155);
        fill-rule: evenodd;
      }
    </style>
  </defs>
  <path id="Shape" class="cls-1" d="M1571.75,2599.04c0.11,0.01.21,0.02,0.32,0.02a2.69,2.69,0,0,0,1.66-.57,1.337,1.337,0,0,1-1.25-.93,1.068,1.068,0,0,0,.25.03,1.345,1.345,0,0,0,.35-0.05,1.332,1.332,0,0,1-1.07-1.31v-0.01a1.26,1.26,0,0,0,.61.16,1.325,1.325,0,0,1-.6-1.11,1.4,1.4,0,0,1,.18-0.67,3.8,3.8,0,0,0,2.75,1.4,1.553,1.553,0,0,1-.03-0.31,1.33,1.33,0,0,1,2.3-.91,2.719,2.719,0,0,0,.85-0.32,1.352,1.352,0,0,1-.59.74,3.24,3.24,0,0,0,.77-0.21,2.924,2.924,0,0,1-.67.69c0,0.05.01,0.11,0.01,0.17a3.793,3.793,0,0,1-5.84,3.19h0Z" transform="translate(-1571.75 -2594.38)"/>
</svg>
