<svg xmlns="http://www.w3.org/2000/svg" width="6.5" height="3.68" viewBox="0 0 6.5 3.68">
  <metadata><?xpacket begin="﻿" id="W5M0MpCehiHzreSzNTczkc9d"?>
<x:xmpmeta xmlns:x="adobe:ns:meta/" x:xmptk="Adobe XMP Core 5.6-c138 79.159824, 2016/09/14-01:09:01        ">
   <rdf:RDF xmlns:rdf="http://www.w3.org/1999/02/22-rdf-syntax-ns#">
      <rdf:Description rdf:about=""/>
   </rdf:RDF>
</x:xmpmeta>
                                                                                                    
                                                                                                    
                                                                                                    
                                                                                                    
                                                                                                    
                                                                                                    
                                                                                                    
                                                                                                    
                                                                                                    
                                                                                                    
                                                                                                    
                                                                                                    
                                                                                                    
                                                                                                    
                                                                                                    
                                                                                                    
                                                                                                    
                                                                                                    
                                                                                                    
                                                                                                    
                           
<?xpacket end="w"?></metadata>
<defs>
    <style>
      .cls-1 {
        fill: #fff;
        fill-rule: evenodd;
      }
    </style>
  </defs>
  <path id="Shape" class="cls-1" d="M1572.98,2567.69a11.464,11.464,0,0,1-1.19-2.14c-0.08-.17-0.03-0.26.16-0.26q0.465-.015.93,0a0.255,0.255,0,0,1,.25.19,6.6,6.6,0,0,0,.63,1.17,1.178,1.178,0,0,0,.24.26,0.141,0.141,0,0,0,.24-0.08,0.653,0.653,0,0,0,.06-0.24,3.538,3.538,0,0,0-.02-0.86,0.342,0.342,0,0,0-.3-0.32c-0.09-.02-0.08-0.05-0.03-0.1a0.325,0.325,0,0,1,.29-0.15h1.07a0.251,0.251,0,0,1,.22.28l0.01,1.19a0.321,0.321,0,0,0,.15.3,0.209,0.209,0,0,0,.21-0.1,3.694,3.694,0,0,0,.6-0.93c0.07-.15.14-0.3,0.2-0.45a0.213,0.213,0,0,1,.24-0.16h1.12a0.186,0.186,0,0,1,.17.28,2.977,2.977,0,0,1-.41.71c-0.17.23-.36,0.46-0.53,0.7a0.331,0.331,0,0,0,.05.52,7.73,7.73,0,0,1,.64.64,2.749,2.749,0,0,1,.23.33,0.235,0.235,0,0,1-.15.36h-0.94a0.734,0.734,0,0,1-.61-0.24c-0.13-.13-0.25-0.28-0.37-0.41-0.06-.06-0.11-0.11-0.17-0.16a0.207,0.207,0,0,0-.32.08,1.129,1.129,0,0,0-.1.44,0.251,0.251,0,0,1-.3.29,2.35,2.35,0,0,1-1.35-.29,2.989,2.989,0,0,1-.92-0.85h0Z" transform="translate(-1571.75 -2565.16)"/>
</svg>
