<svg xmlns="http://www.w3.org/2000/svg" width="6.5" height="6.5" viewBox="0 0 6.5 6.5">
  <metadata><?xpacket begin="﻿" id="W5M0MpCehiHzreSzNTczkc9d"?>
<x:xmpmeta xmlns:x="adobe:ns:meta/" x:xmptk="Adobe XMP Core 5.6-c138 79.159824, 2016/09/14-01:09:01        ">
   <rdf:RDF xmlns:rdf="http://www.w3.org/1999/02/22-rdf-syntax-ns#">
      <rdf:Description rdf:about=""/>
   </rdf:RDF>
</x:xmpmeta>
                                                                                                    
                                                                                                    
                                                                                                    
                                                                                                    
                                                                                                    
                                                                                                    
                                                                                                    
                                                                                                    
                                                                                                    
                                                                                                    
                                                                                                    
                                                                                                    
                                                                                                    
                                                                                                    
                                                                                                    
                                                                                                    
                                                                                                    
                                                                                                    
                                                                                                    
                                                                                                    
                           
<?xpacket end="w"?></metadata>
<defs>
    <style>
      .cls-1 {
        fill: #fff;
        fill-rule: evenodd;
      }
    </style>
  </defs>
  <path id="Shape" class="cls-1" d="M1576.61,2578.75a1.647,1.647,0,0,1,1.64,1.64v3.22a1.647,1.647,0,0,1-1.64,1.64h-3.22a1.647,1.647,0,0,1-1.64-1.64v-3.22a1.647,1.647,0,0,1,1.64-1.64h3.22Zm0.93,1.64a0.935,0.935,0,0,0-.93-0.93h-3.22a0.935,0.935,0,0,0-.93.93v3.22a0.935,0.935,0,0,0,.93.93h3.22a0.935,0.935,0,0,0,.93-0.93v-3.22Zm-0.81.28a0.39,0.39,0,0,0,.39-0.39,0.4,0.4,0,1,0-.79,0,0.393,0.393,0,0,0,.4.39h0Zm-1.73-.34a1.67,1.67,0,1,1-1.67,1.67,1.673,1.673,0,0,1,1.67-1.67h0Zm0.97,1.67a0.97,0.97,0,1,0-.97.97A0.977,0.977,0,0,0,1575.97,2582Z" transform="translate(-1571.75 -2578.75)"/>
</svg>
