<svg xmlns="http://www.w3.org/2000/svg" xmlns:xlink="http://www.w3.org/1999/xlink" width="132.34" height="25.563" viewBox="0 0 132.34 25.563">
  <metadata><?xpacket begin="﻿" id="W5M0MpCehiHzreSzNTczkc9d"?>
<x:xmpmeta xmlns:x="adobe:ns:meta/" x:xmptk="Adobe XMP Core 5.6-c138 79.159824, 2016/09/14-01:09:01        ">
   <rdf:RDF xmlns:rdf="http://www.w3.org/1999/02/22-rdf-syntax-ns#">
      <rdf:Description rdf:about=""/>
   </rdf:RDF>
</x:xmpmeta>
                                                                                                    
                                                                                                    
                                                                                                    
                                                                                                    
                                                                                                    
                                                                                                    
                                                                                                    
                                                                                                    
                                                                                                    
                                                                                                    
                                                                                                    
                                                                                                    
                                                                                                    
                                                                                                    
                                                                                                    
                                                                                                    
                                                                                                    
                                                                                                    
                                                                                                    
                                                                                                    
                           
<?xpacket end="w"?></metadata>
<defs>
    <style>
      .cls-1 {
        filter: url(#filter);
      }

      .cls-2 {
        fill: #fff;
        fill-rule: evenodd;
      }
    </style>
    <filter id="filter" filterUnits="userSpaceOnUse">
      <feFlood result="flood"/>
      <feComposite result="composite" operator="in" in2="SourceGraphic"/>
      <feBlend result="blend" in2="SourceGraphic"/>
    </filter>
  </defs>
  <g id="_1008245728" class="cls-1">
    <path id="Shape" class="cls-2" d="M1178.21,47.528l-10.33,24.507h4.87l2.07-5.148h13.1l2.06,5.148h4.87l-10.33-24.507h-6.31Zm-1.72,15.3,4.88-12.08,4.86,12.08h-9.74Z" transform="translate(-1149.66 -47)"/>
    <path id="Shape-2" data-name="Shape" class="cls-2" d="M1209.33,57.4a4.9,4.9,0,0,0,3.18-.929,2.872,2.872,0,0,0,1.13-2.3,2.607,2.607,0,0,0-1.23-2.3,6.074,6.074,0,0,0-3.42-.82,6.275,6.275,0,0,0-5.37,2.587l-3.57-2a11.251,11.251,0,0,1,15.34-2.779,5.859,5.859,0,0,1,2.53,4.956,5.028,5.028,0,0,1-.88,2.925,6.027,6.027,0,0,1-2.28,1.977,8.6,8.6,0,0,1,3.08,2.433,6.151,6.151,0,0,1,1.12,3.872,6.479,6.479,0,0,1-.74,2.952,6.99,6.99,0,0,1-2.09,2.469,11.652,11.652,0,0,1-7.14,2.1,12.254,12.254,0,0,1-5.9-1.366,11.263,11.263,0,0,1-4.09-3.644l3.57-2.059a7.478,7.478,0,0,0,6.42,3.006,7.3,7.3,0,0,0,4.07-1.029,3.162,3.162,0,0,0,1.56-2.751,2.911,2.911,0,0,0-1.47-2.588,6.886,6.886,0,0,0-3.82-.947h-3.85V57.4h3.85Z" transform="translate(-1149.66 -47)"/>
    <path id="Shape-3" data-name="Shape" class="cls-2" d="M1228.72,50.726a13.986,13.986,0,0,1,19.01,0,12.7,12.7,0,0,1-.01,18.13,14,14,0,0,1-19-.018A12.69,12.69,0,0,1,1228.72,50.726Zm15.86,15a8.377,8.377,0,0,0,0-11.88,9.738,9.738,0,0,0-12.71,0,7.875,7.875,0,0,0-2.47,5.94,7.971,7.971,0,0,0,2.46,5.958,8.908,8.908,0,0,0,6.36,2.341A8.81,8.81,0,0,0,1244.58,65.721Z" transform="translate(-1149.66 -47)"/>
    <path id="Shape-4" data-name="Shape" class="cls-2" d="M1259.24,47.528V72.035h4.48v-10.5h13.8v10.5H1282V47.528h-4.48v9.52h-13.8v-9.52h-4.48Z" transform="translate(-1149.66 -47)"/>
    <path id="Shape-5" data-name="Shape" class="cls-2" d="M1154.02,51.865v20.17h-4.35V47.528h15.76v4.337h-11.41Z" transform="translate(-1149.66 -47)"/>
  </g>
</svg>
