<svg xmlns="http://www.w3.org/2000/svg"><defs><style>.cls-1{fill:#fff;fill-rule:evenodd}</style><style>.cls-1{fill:#9b9b9b;fill-rule:evenodd}</style><style>.cls-1{fill:#fff;fill-rule:evenodd}</style><style>.cls-1{fill:#fff;fill-rule:evenodd}</style><style>.cls-1{fill:#fff;fill-rule:evenodd}</style><style>.cls-1{fill:#fff;fill-rule:evenodd}</style><style>.cls-1{fill:#fff;fill-rule:evenodd}</style><style>.cls-1{fill:#fff;fill-rule:evenodd}</style><style>.cls-1{fill:#fff;fill-rule:evenodd}</style><style>.cls-1{fill:#25d366;fill-rule:evenodd}</style></defs><symbol id="eye-white" viewBox="0 0 12.47 8"><path id="Shape" class="cls-1" d="M1484.39 300.244c-.12.153-2.77 3.756-6.16 3.756s-6.04-3.6-6.15-3.756a.4.4 0 0 1 0-.489c.11-.153 2.76-3.755 6.15-3.755s6.04 3.6 6.16 3.756a.434.434 0 0 1 0 .488zm-.86-.244c-.64-.782-2.8-3.173-5.3-3.173s-4.66 2.39-5.3 3.173c.64.781 2.81 3.172 5.3 3.172s4.66-2.39 5.3-3.172z" transform="translate(-1472 -296)"/><path id="Shape-2" data-name="Shape" class="cls-1" d="M1480.65 299.953a2.465 2.465 0 1 1-2.46-2.465 2.463 2.463 0 0 1 2.46 2.465zm-.82 0a1.645 1.645 0 1 0-1.64 1.643 1.646 1.646 0 0 0 1.64-1.643z" transform="translate(-1472 -296)"/></symbol><symbol id="eye" viewBox="0 0 12.47 8"><path id="Shape" class="cls-1" d="M1484.39 300.244c-.12.153-2.77 3.756-6.16 3.756s-6.04-3.6-6.15-3.756a.4.4 0 0 1 0-.489c.11-.153 2.76-3.755 6.15-3.755s6.04 3.6 6.16 3.756a.434.434 0 0 1 0 .488zm-.86-.244c-.64-.782-2.8-3.173-5.3-3.173s-4.66 2.39-5.3 3.173c.64.781 2.81 3.172 5.3 3.172s4.66-2.39 5.3-3.172z" transform="translate(-1472 -296)"/><path id="Shape-2" data-name="Shape" class="cls-1" d="M1480.65 299.953a2.465 2.465 0 1 1-2.46-2.465 2.463 2.463 0 0 1 2.46 2.465zm-.82 0a1.645 1.645 0 1 0-1.64 1.643 1.646 1.646 0 0 0 1.64-1.643z" transform="translate(-1472 -296)"/></symbol><symbol id="icon-fb" viewBox="0 0 3.03 6.5"><path id="Shape" class="cls-1" d="M1574.14 2552h-.66v-1.1h.66v-.89a1.189 1.189 0 0 1 1.38-1.26h1v1.14h-.74a.32.32 0 0 0-.29.26v.75h1.02c-.04.57-.12 1.1-.12 1.1h-.9v3.25h-1.35V2552z" transform="translate(-1573.47 -2548.75)"/></symbol><symbol id="icon-insta" viewBox="0 0 6.5 6.5"><path id="Shape" class="cls-1" d="M1576.61 2578.75a1.647 1.647 0 0 1 1.64 1.64v3.22a1.647 1.647 0 0 1-1.64 1.64h-3.22a1.647 1.647 0 0 1-1.64-1.64v-3.22a1.647 1.647 0 0 1 1.64-1.64h3.22zm.93 1.64a.935.935 0 0 0-.93-.93h-3.22a.935.935 0 0 0-.93.93v3.22a.935.935 0 0 0 .93.93h3.22a.935.935 0 0 0 .93-.93v-3.22zm-.81.28a.39.39 0 0 0 .39-.39.4.4 0 1 0-.79 0 .393.393 0 0 0 .4.39zm-1.73-.34a1.67 1.67 0 1 1-1.67 1.67 1.673 1.673 0 0 1 1.67-1.67zm.97 1.67a.97.97 0 1 0-.97.97.977.977 0 0 0 .97-.97z" transform="translate(-1571.75 -2578.75)"/></symbol><symbol id="icon-menu-cross" viewBox="0 0 23.867 23.867"><path fill="#FFF" d="M15.087 11.933l8.56-8.559a.75.75 0 0 0 0-1.061L21.554.22a.747.747 0 0 0-1.06 0l-8.561 8.56L3.373.22a.771.771 0 0 0-1.061 0L.22 2.313a.75.75 0 0 0 0 1.061l8.56 8.559-8.56 8.559a.751.751 0 0 0 0 1.062l2.093 2.094a.744.744 0 0 0 1.06 0l8.561-8.56 8.56 8.56a.746.746 0 0 0 1.06 0l2.093-2.094a.751.751 0 0 0 0-1.062l-8.56-8.559z"/></symbol><symbol id="icon-menu-ham" viewBox="0 0 30 19"><path class="cls-1" d="M0 0h30v3H0V0zm0 8h30v3H0V8zm0 8h30v3H0v-3z"/></symbol><symbol id="icon-telegram" viewBox="0 0 6.47 5.62"><path id="Shape" class="cls-1" d="M1571.87 2611.88a.175.175 0 0 1 0-.33l6.14-2.37a.174.174 0 0 1 .23.2l-1.1 5.31a.169.169 0 0 1-.27.1l-1.51-1.09a.24.24 0 0 0-.3.01l-.84.68a.181.181 0 0 1-.28-.08l-.58-1.87-1.49-.56zm1.98.26a.3.3 0 0 0-.13.34l.32 1.11a.071.071 0 0 0 .14-.01l.09-.61a.481.481 0 0 1 .15-.3l2.42-2.25a.054.054 0 0 0-.07-.08l-2.92 1.8z" transform="translate(-1571.78 -2609.19)"/></symbol><symbol id="icon-tw" viewBox="0 0 6.5 5.25"><path id="Shape" class="cls-1" d="M1571.75 2599.04c.11.01.21.02.32.02a2.69 2.69 0 0 0 1.66-.57 1.337 1.337 0 0 1-1.25-.93 1.068 1.068 0 0 0 .25.03 1.345 1.345 0 0 0 .35-.05 1.332 1.332 0 0 1-1.07-1.31v-.01a1.26 1.26 0 0 0 .61.16 1.325 1.325 0 0 1-.6-1.11 1.4 1.4 0 0 1 .18-.67 3.8 3.8 0 0 0 2.75 1.4 1.553 1.553 0 0 1-.03-.31 1.33 1.33 0 0 1 2.3-.91 2.719 2.719 0 0 0 .85-.32 1.352 1.352 0 0 1-.59.74 3.24 3.24 0 0 0 .77-.21 2.924 2.924 0 0 1-.67.69c0 .05.01.11.01.17a3.793 3.793 0 0 1-5.84 3.19z" transform="translate(-1571.75 -2594.38)"/></symbol><symbol id="icon-vk" viewBox="0 0 6.5 3.68"><path id="Shape" class="cls-1" d="M1572.98 2567.69a11.464 11.464 0 0 1-1.19-2.14c-.08-.17-.03-.26.16-.26q.465-.015.93 0a.255.255 0 0 1 .25.19 6.6 6.6 0 0 0 .63 1.17 1.178 1.178 0 0 0 .24.26.141.141 0 0 0 .24-.08.653.653 0 0 0 .06-.24 3.538 3.538 0 0 0-.02-.86.342.342 0 0 0-.3-.32c-.09-.02-.08-.05-.03-.1a.325.325 0 0 1 .29-.15h1.07a.251.251 0 0 1 .22.28l.01 1.19a.321.321 0 0 0 .15.3.209.209 0 0 0 .21-.1 3.694 3.694 0 0 0 .6-.93c.07-.15.14-.3.2-.45a.213.213 0 0 1 .24-.16h1.12a.186.186 0 0 1 .17.28 2.977 2.977 0 0 1-.41.71c-.17.23-.36.46-.53.7a.331.331 0 0 0 .05.52 7.73 7.73 0 0 1 .64.64 2.749 2.749 0 0 1 .23.33.235.235 0 0 1-.15.36h-.94a.734.734 0 0 1-.61-.24c-.13-.13-.25-.28-.37-.41-.06-.06-.11-.11-.17-.16a.207.207 0 0 0-.32.08 1.129 1.129 0 0 0-.1.44.251.251 0 0 1-.3.29 2.35 2.35 0 0 1-1.35-.29 2.989 2.989 0 0 1-.92-.85z" transform="translate(-1571.75 -2565.16)"/></symbol><symbol id="search" viewBox="0 0 14.5 15"><path id="Shape" class="cls-1" d="M1656.49 147.27a.784.784 0 0 1-.55.221.8.8 0 0 1-.57-.242l-3.59-3.739a6.078 6.078 0 1 1 1.16-1.066l3.57 3.71a.8.8 0 0 1-.02 1.116zm-12.65-8.718a4.475 4.475 0 1 0 4.47-4.473 4.474 4.474 0 0 0-4.47 4.473z" transform="translate(-1642.25 -132.5)"/></symbol><symbol id="tick" viewBox="0 0 7.38 4.906"><path id="Shape" class="cls-1" d="M1281.97 91.212l-2.47-2.469-1.23 1.23 3.69 3.68.01-.009.02.009 3.68-3.68-1.23-1.23z" transform="translate(-1278.28 -88.75)"/></symbol></svg>